<svg width="148" height="119" viewBox="0 0 148 119" fill="none" xmlns="http://www.w3.org/2000/svg">
<circle cx="74.5" cy="59.5" r="59.5" fill="#483844" fill-opacity="0.5"/>
<path d="M142.547 69.5C104.912 69.5 112.038 107 74.4024 107C36.7671 107 43.893 69.5 6.2578 69.5C-18.7478 69.5 36.7671 32 74.4024 32C112.038 32 165.262 69.5 142.547 69.5Z" fill="#483844"/>
<g clip-path="url(#clip0_2042_2505)">
<path d="M64.34 78.39L74 88L83.66 78.39C83.774 78.3032 83.868 78.1929 83.9357 78.0667C84.0033 77.9404 84.043 77.8011 84.0522 77.6581C84.0613 77.5151 84.0396 77.3719 83.9885 77.238C83.9375 77.1042 83.8583 76.9828 83.7562 76.8823C83.6542 76.7817 83.5318 76.7042 83.3972 76.6551C83.2627 76.6059 83.1191 76.5863 82.9763 76.5975C82.8335 76.6086 82.6947 76.6503 82.5694 76.7198C82.4441 76.7892 82.3352 76.8848 82.25 77L75 84.19V65.06C75 64.7948 74.8947 64.5404 74.7071 64.3529C74.5196 64.1654 74.2653 64.06 74 64.06C73.7348 64.06 73.4805 64.1654 73.2929 64.3529C73.1054 64.5404 73 64.7948 73 65.06V84.19L65.75 77C65.5617 76.813 65.3069 76.7085 65.0415 76.7094C64.7761 76.7104 64.522 76.8167 64.335 77.005C64.1481 77.1933 64.0435 77.4482 64.0445 77.7135C64.0454 77.9789 64.1517 78.233 64.34 78.42V78.39Z" fill="white" fill-opacity="0.5"/>
</g>
<defs>
<clipPath id="clip0_2042_2505">
<rect width="36" height="36" fill="white" transform="matrix(-1 0 0 -1 92 87)"/>
</clipPath>
</defs>
</svg>
