<svg width="174" height="174" viewBox="0 0 174 174" fill="none" xmlns="http://www.w3.org/2000/svg">
<circle cx="87" cy="87" r="87" fill="#CC4141"/>
<path d="M53.7437 86.7342C54.1694 90.9994 55.9829 95.3422 57.1081 99.4453C60.505 111.833 63.2663 124.37 67.2015 136.607C69.1239 142.586 71.0089 148.701 73.5312 154.46C75.0209 157.862 77.3707 163.014 81.4576 163.915C91.1145 166.043 90.6906 143.208 90.9522 138.55C91.9616 120.572 92.1634 101.91 89.1559 84.1063C86.9688 71.1589 82.9315 55.5447 74.244 45.2589C65.3999 34.7877 57.5897 47.8913 53.7437 56.0562C45.002 74.614 41.1176 94.8376 42.1677 115.299C42.5576 122.896 43.5449 130.925 46.8722 137.864C48.8915 142.075 53.1661 147.33 58.3912 147.062C63.1237 146.819 67.3589 142.169 70.0527 138.721C76.3128 130.71 80.654 120.992 84.5939 111.699C93.4081 90.9105 98.1396 68.4432 101.16 46.1444C102.252 38.0792 103.278 29.9939 102.956 21.8362C102.806 18.0383 102.405 13.4179 100.447 10.0391C97.4796 4.91963 96.858 20.3387 96.8542 21.1506C96.7642 40.5385 110.896 107.843 114 127" stroke="white" stroke-width="8" stroke-linecap="round"/>
<path d="M135.178 153.448C134.896 151.275 132.982 150.264 132.399 152.796C131.733 155.683 131.442 158.253 133.225 161.2C136.27 166.235 141.889 151.845 137.206 148.232C130.046 142.707 130.01 157.349 132.474 160.983C140.265 172.475 139.74 146.768 136.53 156.056" stroke="white" stroke-width="8" stroke-linecap="round"/>
</svg>
