<svg version="1.2" xmlns="http://www.w3.org/2000/svg" viewBox="0 0 179 247" width="179" height="247"><defs><clipPath clipPathUnits="userSpaceOnUse" id="cp1"><path d="m0 0h179v247h-179z"/></clipPath></defs><style>.a{fill:#cc4141}.b{fill:none;stroke:#fff;stroke-linecap:round;stroke-width:8}</style><g clip-path="url(#cp1)"><path class="a" d="m24.1 84.7l0.4-11.3q0-9.6-3.8-13.3l1.8-1.8q3.5 3.5 8.7 3.5h115.4q5.4 0 8.8-3.5l1.8 1.8q-3.4 3.3-3.4 8.8l-0.4 11.2q0 9.5 3.8 13.3l-1.8 1.8q-4-4-12.8-4l-19.5 1.2q-9.2 0-13.2-4l-1.9 1.7q3.4 3.4 3.4 8.8v73q0 9.1 1.6 27.2 1.7 18.1 1.7 23.8 0 10.1-3.6 10.1-3.6 0-3.6-7.2 0-7.1 1.1-19.3 1.3-12.1 1.3-18.3 0-9.6-3.8-9.6-1.9 0-2.9 2.2-1.1 2.2-1.1 4.4l2.1 18.3q0 6.3-3.6 6.3-1.9 0-2.8-1.8-0.9-1.8-0.9-4.3 0-2.5 1.6-8.1 1.6-5.5 1.6-9 0-3.6-3.1-5.4-3-1.8-7.6-1.8-4.6 0-9.6 1.8-4.9 1.8-8.7 5.7-3.8 4-3.8 7.7 0 3.9 1.2 9.4 1.2 5.4 1.2 9 0 3.7-3.3 3.7-3.6 0-3.6-4 0-3.8 1.4-9.8 1.4-6 1.4-9v-22.8q0.1-48.2 0.1-72.2 0-5.5 3.4-8.8l-1.8-1.7q-3.8 3.9-12.8 3.9l-18.9-1.1q-9.1 0-13.1 4l-1.8-1.8q3.4-3.3 3.4-8.7zm75.7 138.4q2.2 9.7 2.2 16.8 0 3.1-2.2 3.1-2.2 0-2.2-2.8 0-7.9 2.2-17.1z"/><path class="a" d="m89 179c-48.1 0-87-38.9-87-87 0-48.1 38.9-87 87-87 48.1 0 87 38.9 87 87 0 48.1-38.9 87-87 87z"/><path class="b" d="m55.7 91.7c0.5 4.3 2.3 8.6 3.4 12.7 3.4 12.4 6.2 25 10.1 37.2 1.9 6 3.8 12.1 6.3 17.9 1.5 3.4 3.9 8.5 8 9.4 9.6 2.1 9.2-20.7 9.5-25.3 1-18 1.2-36.7-1.8-54.5-2.2-12.9-6.3-28.6-15-38.8-8.8-10.5-16.6 2.6-20.5 10.8-8.7 18.5-12.6 38.7-11.5 59.2 0.4 7.6 1.3 15.6 4.7 22.6 2 4.2 6.3 9.4 11.5 9.2 4.7-0.3 9-4.9 11.7-8.4 6.2-8 10.6-17.7 14.5-27 8.8-20.8 13.5-43.3 16.6-65.6 1.1-8 2.1-16.1 1.8-24.3-0.2-3.8-0.6-8.4-2.6-11.8-2.9-5.1-3.5 10.3-3.5 11.2-0.1 19.3 14 86.6 17.1 105.8"/><path class="b" d="m137.2 158.4c-0.3-2.1-2.2-3.1-2.8-0.6-0.7 2.9-1 5.5 0.8 8.4 3.1 5 8.7-9.4 4-13-7.2-5.5-7.2 9.1-4.7 12.8 7.8 11.5 7.2-14.2 4-4.9"/><path class="a" d="m121.6 172.5l-12.2 2.5 2.7 12.7c0 0-0.7-6.7 1.3-10 2.1-3.3 8.2-5.2 8.2-5.2z"/><path class="a" d="m57.3 172.6l11.9 3.6-3.8 12.4c0 0 1.3-6.6-0.4-10-1.7-3.5-7.7-6-7.7-6z"/></g></svg>