<svg width="465" height="135" viewBox="0 0 465 135" fill="none" xmlns="http://www.w3.org/2000/svg">
<path d="M457 15.3792C454.766 15.6274 451.782 17.1038 450 18.4903C435.093 30.0842 410.623 30.6607 392.778 32.3792C330.007 38.4237 267.24 42.1808 204.222 44.3792C143.441 46.4994 79.696 44.2754 19.8888 57.1569C-42.2936 70.5501 152.298 39.3974 210.555 64.9347C235.773 75.989 193.95 92.4724 185.444 94.9347C160.561 102.138 134.241 105.286 109 111.379" stroke="url(#paint0_linear_509_22)" stroke-width="15" stroke-linecap="round"/>
<path d="M183 111.379C178.791 111.379 175.516 111.998 171.333 112.935C144.019 119.05 116.479 124.076 89 129.379" stroke="#1B1E1B" stroke-opacity="0.8" stroke-width="10" stroke-linecap="round"/>
<path d="M171 15.3792C171.623 10.398 218.012 9.48601 219 9.37915" stroke="#1B1E1B" stroke-opacity="0.8" stroke-width="10" stroke-linecap="round"/>
<path d="M387 29.3792C381.333 30.0876 392.999 27.5459 395 27.3792C406.544 26.4172 418.492 21.6992 428.556 16.2681C433.4 13.6538 442.595 11.7209 445.667 6.60142C449.326 0.502371 434.324 15.2118 428.334 19.0459C425.406 20.9193 420.224 24.7563 427.334 22.2681C433.299 20.1801 439.885 18.9684 445.667 16.4903C446.833 15.9907 441.136 18.3285 441 18.3792C435.952 20.2724 435.854 20.4085 441 19.3792" stroke="#1B1E1B" stroke-width="10" stroke-linecap="round"/>
<defs>
<linearGradient id="paint0_linear_509_22" x1="7.77686" y1="63.3792" x2="457" y2="63.3792" gradientUnits="userSpaceOnUse">
<stop stop-color="#1B1E1B" stop-opacity="0.21"/>
<stop offset="1" stop-color="#1B1E1B"/>
</linearGradient>
</defs>
</svg>
