<svg width="51" height="66" viewBox="0 0 51 66" fill="none" xmlns="http://www.w3.org/2000/svg">
<path d="M7.58334 20.3341C7.67288 21.2291 8.05426 22.1403 8.29089 23.0013C9.00526 25.6006 9.58596 28.2314 10.4135 30.7993C10.8178 32.0537 11.2142 33.337 11.7447 34.5454C12.058 35.2591 12.5521 36.3403 13.4116 36.5294C15.4424 36.976 15.3533 32.1843 15.4083 31.2068C15.6206 27.4345 15.663 23.5186 15.0306 19.7826C14.5706 17.0658 13.7216 13.7894 11.8946 11.631C10.0347 9.4338 8.39218 12.1834 7.58334 13.8967C5.74497 17.7908 4.92808 22.0344 5.14891 26.3279C5.2309 27.922 5.43854 29.607 6.13827 31.063C6.56293 31.9466 7.46187 33.0493 8.56072 32.993C9.55598 32.942 10.4466 31.9662 11.0131 31.2428C12.3296 29.5617 13.2426 27.5226 14.0712 25.5727C15.9248 21.2104 16.9198 16.4959 17.5549 11.8168C17.7846 10.1245 18.0005 8.42789 17.9327 6.71611C17.9011 5.91918 17.8169 4.94966 17.405 4.24066C16.781 3.16641 16.6503 6.40187 16.6495 6.57225C16.6306 10.6405 16.9801 14.5881 17.6329 18.6078C18.7136 25.2623 20.1099 31.8901 21.4584 38.4953C22.285 42.5442 22.9512 46.6239 23.8809 50.6508" stroke="white" stroke-width="2" stroke-linecap="round"/>
<path d="M18.4843 24.7575C18.4496 25.1045 17.9984 25.8937 17.9506 25.1051C17.8246 23.0262 17.9339 20.6785 18.7121 18.7337C18.9154 18.2259 19.4139 17.0263 20.1272 17.0375C20.8007 17.048 21.1458 18.0101 21.2845 18.5299C21.9228 20.9228 21.0579 23.7663 19.8814 25.8664C19.4406 26.6531 18.038 28.854 16.7754 28.144C16.1741 27.8059 17.1949 26.9515 17.5729 26.9213C18.5515 26.843 19.618 27.8706 20.499 28.2159C21.8777 28.7564 23.2081 29.2293 24.4085 28.0961C25.4532 27.1098 25.6143 25.6348 25.4758 24.266C25.4496 24.0066 24.8222 22.6776 24.5524 23.4868C24.2844 24.2905 24.7121 25.5676 24.8522 26.3638C25.1246 27.9118 25.4341 29.6275 26.4951 30.8592C27.4552 31.9737 28.4529 31.7161 28.9056 30.3198C29.6155 28.1302 29.3838 25.3013 28.9536 23.0912C28.7635 22.1151 28.2906 18.0646 26.4232 18.6798C25.4182 19.0108 24.9666 20.2068 24.7563 21.1432C24.2766 23.279 24.4562 25.5054 24.5284 27.6705" stroke="white" stroke-width="2" stroke-linecap="round"/>
<path d="M33.1629 19.7946C33.1397 19.6093 32.8816 19.3127 32.7851 19.1413C32.5176 18.6659 32.3563 17.9953 31.8677 17.6968C31.4406 17.4359 30.9031 17.8602 30.6325 18.2003C29.9908 19.0066 29.8709 20.208 29.7091 21.1972C29.4834 22.5772 29.5138 23.9146 29.6611 25.3029C29.8218 26.8169 29.855 28.7023 30.6865 30.0321C31.3267 31.056 32.2597 30.585 32.947 29.8882C34.1315 28.6873 34.3101 26.7709 34.1342 25.189" stroke="white" stroke-width="2" stroke-linecap="round"/>
<path d="M33.8104 11.5951C33.6238 13.4595 33.6791 15.3736 33.8343 17.2532C34.3438 23.4226 35.4083 29.5059 36.0769 35.6543" stroke="white" stroke-width="2" stroke-linecap="round"/>
<path d="M38.1276 11.2714C38.0726 11.2233 38.2199 14.0996 38.2355 14.3402C38.6618 20.8978 38.9987 27.4051 39.8545 33.928" stroke="white" stroke-width="2" stroke-linecap="round"/>
<path d="M34.1342 22.1682C33.948 22.3542 33.7771 22.4222 33.6485 22.6537C33.4621 22.989 34.5729 22.7345 34.6978 22.7076C35.7219 22.4873 36.7668 22.3555 37.7858 22.1142C38.0396 22.0541 38.7443 21.6903 38.6672 21.8445" stroke="white" stroke-width="2" stroke-linecap="round"/>
<path d="M42.3369 27.4547C42.3144 27.2749 42.1616 27.1913 42.1151 27.4008C42.062 27.6396 42.0387 27.8522 42.181 28.096C42.4241 28.5126 42.8726 27.3221 42.4988 27.0231C41.9273 26.5661 41.9244 27.7775 42.121 28.0781C42.7429 29.0288 42.7011 26.9021 42.4448 27.6705" stroke="white" stroke-width="2" stroke-linecap="round"/>
<path d="M11.2529 58.0951C11.4681 58.0682 11.476 57.6824 11.5347 57.5257C12.1088 55.9956 12.6717 54.4613 13.2377 52.9285C14.0516 50.7238 14.6538 48.3861 15.1144 46.0835C15.6128 43.5927 16.1289 40.9859 16.3017 38.4474C16.3218 38.1514 16.5755 36.0163 16.2717 35.8341C16.1333 35.7511 16.3145 37.9951 16.3317 38.0938C16.8056 40.8181 17.1272 43.5097 17.9086 46.1794C19.7876 52.5989 22.2048 58.8195 24.7442 65" stroke="white" stroke-width="2" stroke-linecap="round"/>
<path d="M24.0967 55.0742C24.0603 55.3651 23.9656 54.8832 23.9348 54.8585C23.8196 54.7664 23.7606 54.316 23.7129 54.1872C23.3988 53.3374 23.286 52.4089 23.1313 51.5199C22.8554 49.9339 22.2136 47.5987 23.1253 46.1075C23.971 44.7242 25.8288 45.8339 26.5791 46.6589" stroke="white" stroke-width="2" stroke-linecap="round"/>
<path d="M6.61192 40.0777C7.95068 41.4159 9.22334 42.8109 10.7133 43.9856C13.7952 46.4155 17.4641 47.314 21.3684 47.2762C26.8037 47.2238 32.1705 45.5518 36.7365 42.631C41.6211 39.5065 46.094 34.5836 47.4636 28.8333C48.7353 23.4944 47.8739 17.5855 45.413 12.7039C42.3287 6.58602 36.0339 2.4513 29.3253 1.33363C21.6188 0.0497015 12.9166 2.50142 7.4274 8.17258C0.636169 15.189 -0.143105 25.3177 2.18677 34.3596" stroke="white" stroke-width="2" stroke-linecap="round"/>
<path d="M28.8456 37.5963C28.2919 37.6654 28.6178 41.7453 28.6058 42.1396C28.5294 44.6491 28.5457 47.102 28.8936 49.5959C29.2312 52.0154 29.7562 54.4088 30.2487 56.8004" stroke="white" stroke-width="2" stroke-linecap="round"/>
<path d="M43.9559 6.52429C45.9782 8.32113 46.7259 10.5554 47.5176 13.1055" stroke="white" stroke-width="2" stroke-linecap="round"/>
<path d="M49.1366 10.6241C49.1698 10.9559 49.3803 11.3082 49.4664 11.631C49.8174 12.9468 49.9248 14.2336 50 15.5869" stroke="white" stroke-width="2" stroke-linecap="round"/>
</svg>
