<svg width="159" height="52" viewBox="0 0 159 52" fill="none" xmlns="http://www.w3.org/2000/svg">
<g clip-path="url(#clip0_419_1953)">
<path d="M153.619 31.7794L158.017 34.7103C156.59 36.812 153.175 40.4179 147.272 40.4179C139.941 40.4179 134.481 34.749 134.481 27.5374C134.481 19.8634 139.999 14.6572 146.654 14.6572C153.349 14.6572 156.628 19.9788 157.689 22.8518L158.268 24.3174L141.021 31.4516C142.333 34.0356 144.378 35.3467 147.272 35.3467C150.166 35.3467 152.172 33.9198 153.619 31.7794ZM140.095 27.1329L151.612 22.3507C150.976 20.7505 149.085 19.613 146.828 19.613C143.954 19.613 139.96 22.1582 140.095 27.1329Z" fill="#FF302F"/>
<path d="M126.167 1.52626H131.723V39.2417H126.167V1.52626Z" fill="#20B15A"/>
<path d="M117.409 15.6597H122.772V38.5667C122.772 48.0724 117.158 51.9867 110.521 51.9867C104.271 51.9867 100.509 47.7834 99.101 44.3705L104.02 42.3265C104.908 44.4281 107.049 46.9158 110.521 46.9158C114.785 46.9158 117.409 44.274 117.409 39.338V37.487H117.216C115.942 39.0294 113.512 40.4176 110.425 40.4176C103.982 40.4176 98.0781 34.8066 98.0781 27.5761C98.0781 20.3066 103.982 14.638 110.425 14.638C113.493 14.638 115.942 16.007 117.216 17.511H117.409V15.6597ZM117.794 27.5761C117.794 23.0255 114.766 19.7089 110.907 19.7089C107.01 19.7089 103.731 23.0255 103.731 27.5761C103.731 32.0685 107.01 35.3272 110.907 35.3272C114.766 35.3467 117.795 32.0685 117.795 27.5761" fill="#3686F7"/>
<path d="M67.5773 27.4795C67.5773 34.9031 61.79 40.3597 54.6905 40.3597C47.5914 40.3597 41.8037 34.8839 41.8037 27.4795C41.8037 20.0175 47.5914 14.5801 54.6905 14.5801C61.79 14.5801 67.5773 20.0175 67.5773 27.4795ZM61.9442 27.4795C61.9442 22.8521 58.5873 19.6702 54.6905 19.6702C50.7938 19.6702 47.4368 22.8521 47.4368 27.4795C47.4368 32.0685 50.7938 35.2888 54.6905 35.2888C58.5876 35.2888 61.9442 32.0685 61.9442 27.4795Z" fill="#FF302F"/>
<path d="M95.7248 27.5374C95.7248 34.961 89.9371 40.4176 82.838 40.4176C75.7385 40.4176 69.9512 34.9607 69.9512 27.5374C69.9512 20.0754 75.7385 14.6572 82.838 14.6572C89.9371 14.6572 95.7248 20.0562 95.7248 27.5374ZM90.0722 27.5374C90.0722 22.91 86.7155 19.7281 82.8185 19.7281C78.9217 19.7281 75.5648 22.91 75.5648 27.5374C75.5648 32.1264 78.9217 35.3467 82.8185 35.3467C86.7347 35.3467 90.0722 32.1072 90.0722 27.5374Z" fill="#FFBA40"/>
<path d="M20.6218 34.7682C12.5385 34.7682 6.21106 28.2509 6.21106 20.1717C6.21106 12.0928 12.5385 5.57546 20.6218 5.57546C24.9818 5.57546 28.1647 7.29146 30.5183 9.4897L34.3962 5.61415C31.1166 2.47125 26.7374 0.0798645 20.6218 0.0798645C9.5485 0.080174 0.230469 9.10434 0.230469 20.1717C0.230469 31.2396 9.5485 40.2635 20.6218 40.2635C26.6024 40.2635 31.1166 38.2968 34.647 34.6332C38.2737 31.0081 39.3926 25.9177 39.3926 21.7914C39.3926 20.4995 39.2384 19.1691 39.0646 18.1858H20.6218V23.5461H33.7595C33.3736 26.9013 32.3126 29.1958 30.75 30.7574C28.8594 32.6665 25.8694 34.7682 20.6218 34.7682Z" fill="#3686F7"/>
</g>
<defs>
<clipPath id="clip0_419_1953">
<rect width="158.557" height="52" fill="white"/>
</clipPath>
</defs>
</svg>
