<svg width="249" height="228" viewBox="0 0 249 228" fill="none" xmlns="http://www.w3.org/2000/svg">
<path d="M164.89 35.4052C144.911 25.3789 118.032 26.7193 97.8398 35.4052C79.0508 43.4874 61.8654 57.9504 52.148 76.1702C39.9224 99.0926 32.0521 133.544 47.7714 156.822C90.7707 220.497 188 161.209 206.292 106.129C215.055 79.7438 201.724 54.9643 178.194 41.7308C147.024 24.1998 113.256 33.2436 81.3838 41.7308" stroke="#1B1E1B" stroke-width="15" stroke-linecap="round"/>
<path d="M104 87.4953C104 82.0917 102 88.4841 102 90.6718C102 104.262 102.109 116.865 104 130.379" stroke="#1B1E1B" stroke-width="15" stroke-linecap="round"/>
<path d="M99.1196 85.4366C97.3637 85.4366 102.879 85.0616 103.799 86.2275C104.848 87.557 107.935 87.4036 109.345 87.7213C119.994 90.1211 130.482 92.9911 141.234 94.927C147.558 96.0658 163.467 100.092 151.892 105.472C131.628 114.89 113.598 128.732 96 142.379" stroke="#1B1E1B" stroke-width="15" stroke-linecap="round"/>
<path d="M215.133 71.3792C223.837 72.5145 210.043 108.114 209 111.379" stroke="#1B1E1B" stroke-width="10" stroke-linecap="round"/>
<path d="M215 108.379C214.582 112.138 208.142 117.381 206 120.379" stroke="#1B1E1B" stroke-width="10" stroke-linecap="round"/>
<path d="M53.2279 52.4139C55.1042 50.5252 56.7079 48.4346 58.3438 46.376C61.9674 41.8164 49.5649 54.1158 45.995 58.7182C39.8177 66.6821 35.1648 75.2955 31 84.3791" stroke="#1B1E1B" stroke-width="10" stroke-linecap="round"/>
<path d="M107 199.379C117.816 199.379 127.714 191.322 137 186.379" stroke="#1B1E1B" stroke-width="10" stroke-linecap="round"/>
</svg>
